<svg aria-hidden="true" focusable="false" fill="#1d70b8" data-prefix="far" data-icon="heart" role="img" xmlns="http://www.w3.org/2000/svg" viewBox="0 0 20 20"><path fill="#1d70b8" d="M14.5 0C12.75 0 11.1001 0.804904 10 2.11284C8.89986 0.804904 7.25 0 5.5 0C2.3999 0 0 2.41447 0 5.53341C0 9.3563 3.3999 12.4251 8.54981 17.1533L10 18.4615L11.4502 17.1533C16.6 12.4251 20 9.35625 20 5.53341C20 2.41447 17.6001 0 14.5 0ZM10.6171 15.8297L10.4143 16.0159L10 16.3896L9.58577 16.0159L9.38317 15.8299C6.95923 13.6048 4.86582 11.6831 3.48192 9.96481C2.13784 8.29592 1.53846 6.92924 1.53846 5.53342C1.53846 4.43414 1.94337 3.42135 2.67861 2.68169C3.41139 1.94448 4.41337 1.53847 5.5 1.53847C6.75644 1.53847 7.99856 2.12342 8.8226 3.10313L10 4.50294L11.1774 3.10313C12.0014 2.12342 13.2435 1.53847 14.5 1.53847C15.5867 1.53847 16.5886 1.94448 17.3214 2.68164C18.0566 3.42135 18.4615 4.43409 18.4615 5.53342C18.4615 6.92924 17.8622 8.29587 16.5182 9.96472C15.1343 11.683 13.041 13.6046 10.6171 15.8297Z" /></svg>
