<svg aria-hidden="true" focusable="false" fill="#1d70b8" data-prefix="far" data-icon="heart" role="img" xmlns="http://www.w3.org/2000/svg" viewBox="0 0 20 20"><path fill="#1d70b8" d="M17.1575 1.23331L17.6492 1.72498C18.3267 2.40331 18.2242 3.60581 17.4184 4.41081L7.27921 14.55L3.99421 15.7516C3.58171 15.9033 3.18004 15.7066 3.09838 15.3141C3.07078 15.1718 3.08377 15.0245 3.13588 14.8891L4.36088 11.5758L14.4717 1.46415C15.2775 0.659147 16.48 0.555814 17.1575 1.23415V1.23331ZM6.83671 2.24165C6.94615 2.24165 7.05451 2.2632 7.15561 2.30508C7.25672 2.34696 7.34858 2.40834 7.42597 2.48572C7.50335 2.56311 7.56473 2.65497 7.60661 2.75608C7.64849 2.85718 7.67004 2.96555 7.67004 3.07498C7.67004 3.18442 7.64849 3.29278 7.60661 3.39388C7.56473 3.49499 7.50335 3.58685 7.42597 3.66424C7.34858 3.74162 7.25672 3.803 7.15561 3.84488C7.05451 3.88676 6.94615 3.90831 6.83671 3.90831H3.50338C3.06135 3.90831 2.63743 4.08391 2.32487 4.39647C2.01231 4.70903 1.83671 5.13295 1.83671 5.57498V15.575C1.83671 16.017 2.01231 16.4409 2.32487 16.7535C2.63743 17.0661 3.06135 17.2416 3.50338 17.2416H13.5034C13.9454 17.2416 14.3693 17.0661 14.6819 16.7535C14.9945 16.4409 15.17 16.017 15.17 15.575V12.2416C15.17 12.0206 15.2578 11.8087 15.4141 11.6524C15.5704 11.4961 15.7824 11.4083 16.0034 11.4083C16.2244 11.4083 16.4364 11.4961 16.5926 11.6524C16.7489 11.8087 16.8367 12.0206 16.8367 12.2416V15.575C16.8367 16.459 16.4855 17.3069 15.8604 17.932C15.2353 18.5571 14.3874 18.9083 13.5034 18.9083H3.50338C2.61932 18.9083 1.77148 18.5571 1.14635 17.932C0.521233 17.3069 0.170044 16.459 0.170044 15.575V5.57498C0.170044 4.69093 0.521233 3.84308 1.14635 3.21796C1.77148 2.59284 2.61932 2.24165 3.50338 2.24165H6.83671Z" /></svg>
